<?xml version="1.0" encoding="utf-8"?>
<!-- Generator: Adobe Illustrator 18.1.1, SVG Export Plug-In . SVG Version: 6.00 Build 0)  -->
<svg version="1.1" id="Layer_1" xmlns="http://www.w3.org/2000/svg" xmlns:xlink="http://www.w3.org/1999/xlink" x="0px" y="0px"
	 viewBox="0 0 364.2 374.2" enable-background="new 0 0 364.2 374.2" xml:space="preserve">
<g>
	<path fill="#67A19D" stroke="#67A19D" stroke-width="4.3298" stroke-miterlimit="10" d="M252.8,63.8c0,0-7.3-4.5-10.1-12.2
		c-2.8-7.8,0.1-15.9,0.1-15.9s7.3,4.5,10.1,12.2C255.6,55.7,252.8,63.8,252.8,63.8z"/>
	<path fill="#67A19D" stroke="#67A19D" stroke-width="4.3298" stroke-miterlimit="10" d="M251,67.8c0,0-4.1,7.6-11.7,10.7
		c-7.6,3.2-15.8,0.8-15.8,0.8s4.1-7.6,11.7-10.7C242.8,65.3,251,67.8,251,67.8z"/>
</g>
<g>
	<path fill="#67A19D" stroke="#67A19D" stroke-width="4.3298" stroke-miterlimit="10" d="M281.4,81.9c0,0-6.6-5.5-8.1-13.6
		s2.5-15.7,2.5-15.7s6.6,5.5,8.1,13.6S281.4,81.9,281.4,81.9z"/>
	<path fill="#67A19D" stroke="#67A19D" stroke-width="4.3298" stroke-miterlimit="10" d="M279.1,85.5c0,0-5.2,6.9-13.2,8.8
		c-8,2-15.8-1.6-15.8-1.6s5.2-6.9,13.2-8.8C271.3,81.8,279.1,85.5,279.1,85.5z"/>
</g>
<g>
	<path fill="#67A19D" stroke="#67A19D" stroke-width="4.3298" stroke-miterlimit="10" d="M218.6,51.4c0,0-8.2-2.7-12.7-9.6
		c-4.5-6.9-3.6-15.4-3.6-15.4s8.2,2.7,12.7,9.6C219.5,42.9,218.6,51.4,218.6,51.4z"/>
	<path fill="#67A19D" stroke="#67A19D" stroke-width="4.3298" stroke-miterlimit="10" d="M217.8,55.6c0,0-2.2,8.3-8.9,13.1
		s-15.2,4.4-15.2,4.4s2.2-8.3,8.9-13.1S217.8,55.6,217.8,55.6z"/>
</g>
<g>
	<path fill="#1F2E55" d="M164,169.7c0.2,6.9-5,11.6-10.1,10.3c-2.9-0.7-6.2-2.5-9.2-8.1c0.1,6.5-1,12.1-4.9,13.4
		c-5,1.6-13.5-1.3-16.2-15.1c-4-20.2,16.7-25.8,22.8-21.2c2.2,1.5-4.3,3.4-5.5,3.7l-0.2,0.1c-5.5-6.3-13.7,0.6-10.9,14.7
		c2.3,11.7,6.5,15.8,10.5,14.6c3.9-1.3,2.4-10.9,1-18.7c-0.4-1.6-0.8-3.6-1.1-6.3c-0.3-1.7,7.2-6.7,7.1-4.9
		c-0.2,7,0.7,11.2,1.8,15.2c1.8,6.9,4.8,10,6.8,10.5c3.8,1.1,6.6-2.7,6.5-7.4C162.2,168.1,163.9,167.2,164,169.7z"/>
	<g>
		<path fill="#1F2E55" d="M142.8,208.6c-0.4,1.1-0.7,2.3-1,3.4c-17.8,1.6-27-6.6-33.8-23c-7.1-16.9-14.4-10.8-19-8.4
			c-1.1,0.5-0.5-1.4,0.7-2.3c0.3-0.3,0.6-0.5,1-0.7c10.9-6.4,13.7-25,7.9-43c-0.4-1.1,7.7-5.5,8.1-4.4c5.8,17.8,1.7,35.9-8.9,45
			c5.1-0.9,10.9,0.7,15.2,11.5C118.3,200.1,125.7,210.1,142.8,208.6z"/>
		<path fill="#1F2E55" d="M86.7,182.9c-1.5-26-11.3-50.3-33.5-43.1c-16.2,5.3-24.2,24.7-14.2,38.7c10.4,14.5,35.8,9.9,40-10.6
			c1.5,5.8,3,12.1,3.4,18.1c1,16.8-3.4,26.7-6.9,31.8c0,0,0,0,0,0c-0.9,1.1-1.7,2-2.6,2.9c0,0,0,0-0.1,0.1c-0.1,0.1-0.1,0.1-0.2,0.2
			c0,0.1,0.1,0.1,0.1,0.2c0.1,0.2,0.2,0.3,0.3,0.5c0,0,0,0.1,0.1,0.1c0.1-0.1,0.2-0.1,0.2-0.2c0.1-0.1,0.2-0.1,0.2-0.2
			c0.5-0.4,0.9-0.9,1.4-1.4l0,0c3-2.9,5.4-6.4,7.1-10.2C84.1,205.6,87.5,197,86.7,182.9z M41.2,177c-8.8-12.4-3-29.9,11.7-34.6
			c13-4.2,20.8,7.2,25.2,22.3C76,186.3,51.2,191.3,41.2,177z"/>
		<path fill="#1F2E55" d="M164.7,138.4c3.8,21.2,8.8,31.6,14.8,31.9c3.9,0.2,6.5-5.8,6.6-9.1c0.1-2.3,1.7-3.1,1.8-0.7
			c0.2,3.7-3.3,12.6-10.3,12.3c-8.4-0.4-14.6-14-19.6-32.9c-2,0.4-4.1,0.6-5.8,0.7c-1.2,0-1.1-1.8-0.1-1.9c1.6-0.2,3.5-0.5,5.3-1
			c-0.8-3.3-1.6-6.7-2.4-10.3c-0.2-1.2,7.5-4.3,7.6-3.1l1.6,10.9c4.6-2.1,8.9-4.9,12-8.3c1.4-1.5,2.6,5,2.5,5.2
			C175.1,134.6,169.9,136.9,164.7,138.4z"/>
		<path fill="#1F2E55" d="M199.3,164.9c-6.3-1.7-14.1-14.8-15.6-29.6c-0.1-1.5,7.3-5.4,7.3-3.8c-0.4,13.8,5.8,30.2,9.9,31.5
			c4,1.1,7.8-2.8,7.1-7.9c-0.3-2.3,1.5-3.1,1.8-0.8C210.4,160.9,205.9,166.6,199.3,164.9z M181.8,123.2c-1.2-1.6-0.5-4.2,1.6-5.8
			c2.1-1.5,4.7-1.4,6,0.2c1.2,1.6,0.5,4.2-1.7,5.7C185.7,124.9,183.1,124.8,181.8,123.2z"/>
		<path fill="#1F2E55" d="M239.4,138.9c0.8,6.1-3.4,16.3-12.3,18.3c-7.6,1.7-15.8-2.1-18.2-13.8c-2.2-11.3,2.9-21.5,10.5-22.4
			c10.8-1.3,12.1,18,0.6,30.6c2.3,2.3,5.2,3.4,8.4,2.6c6.7-1.5,9.6-9.7,9.5-14.5C237.8,137.5,239.1,136.5,239.4,138.9z M219.1,150.6
			c6.5-10.5,3.7-27.4-0.7-27c-4.6,0.6-5.2,8.5-3.5,16.8c0.8,4.3,2.3,7.8,4.2,10.3L219.1,150.6z"/>
	</g>
</g>
<g>
	<path fill="#1F2E55" d="M274.5,240.6c-5.7,13.8-19.6,29-37.1,32.1c-15.2,2.7-30.2-7.9-34.5-20.3c-2.4-6.9-1.6-13.7,1.6-18.9
		c3.8,1.1,7.8,0.9,10.4,0c10.9-3.4,8.4-13.6,0.2-10.6c-3.5,1.3-6.7,3.1-9.4,5.3c-2.7-1.9-4.8-5.5-5.2-11.3
		c23-1.5,27.5-16.5,19.3-21.3c-6.8-4-23.3,3-26,17.7c-1.1-0.2-2.1-0.4-3.3-0.7c-0.8,1.3-1.7,2.7-2.6,4c1.9,0.2,3.8,0.4,5.5,0.4
		c0,0.7,0,1.3,0.1,1.9c0.5,7.2,3.9,11.3,8.1,13.5c-5.3,6.7-7.6,15.6-4.3,25.4c4.7,13.9,19,21.4,38.5,18.5
		c20.1-2.9,37.7-15.7,42.7-33.8C278.8,241.1,274.8,239.9,274.5,240.6z M214.3,225.4c3.6-1.3,5.5,2.5,1.2,4c-2.5,0.7-5.2,0.8-7.6,0
		C209.7,227.6,211.8,226.3,214.3,225.4z M216.3,198c5.7,3,4,16.8-15.7,15.9C201,199.2,213.3,196.5,216.3,198z"/>
	<path fill="#1F2E55" d="M264.4,230.3c0.3,3.7-4.3,13.3-11.4,13.4c-9.4,0.1-15.3-19-24.3-53.2c-0.3-1.2,7.3-4.4,7.5-3.3
		c6.8,40,12.9,53.8,18.6,53.8c3.9,0,7.8-6.7,7.7-10C262.6,228.8,264.2,227.9,264.4,230.3z"/>
	<path fill="#1F2E55" d="M290.6,220.4c0.3,3.7-4.3,13.3-11.4,13.4c-9.4,0.1-15.3-19-24.3-53.2c-0.3-1.2,7.3-4.4,7.5-3.3
		c6.8,40,12.9,53.8,18.6,53.8c3.9,0,7.8-6.7,7.7-9.9C288.8,218.9,290.4,218,290.6,220.4z"/>
	<path fill="#1F2E55" d="M328.9,207.6c0.5,6.9-4.5,11.8-9.7,10.7c-2.9-0.6-6.3-2.3-9.6-7.7c0.4,6.5-0.5,12.1-4.3,13.6
		c-4.9,1.8-13.5-0.8-16.8-14.4c-4.8-20,15.6-26.4,21.9-22.1c2.3,1.5-4.1,3.6-5.4,3.9l-0.2,0.1c-5.7-6.1-13.7,1.1-10.3,15.1
		c2.7,11.6,7.2,15.6,11,14.1c3.9-1.4,2-11,0.2-18.8c-0.5-1.6-1-3.6-1.4-6.2c-0.4-1.7,6.9-7,6.9-5.2c0.1,7,1.2,11.2,2.4,15.1
		c2.1,6.9,5.2,9.8,7.2,10.2c3.9,1,6.5-2.9,6.2-7.6C327.1,206.1,328.7,205.2,328.9,207.6z"/>
</g>
<path fill="#67A19D" d="M60.8,123.6c0,0,0.8-1.4,2.2-4c0.7-1.3,1.6-2.9,2.7-4.7c1.2-1.8,2.5-3.9,4-6.2c1.5-2.3,3.5-4.7,5.5-7.4
	c2-2.7,4.5-5.3,7-8.3c5.4-5.6,11.5-11.8,19.3-17.4C109.2,70,118,64.4,128,59.9c10-4.5,21.1-8.2,32.9-10.3c1.5-0.3,3-0.5,4.4-0.8
	c1.5-0.3,3-0.4,4.5-0.5c3-0.3,6.1-0.8,9.2-0.8c3.1-0.1,6.2-0.4,9.3-0.2c1.5,0,3.1,0.1,4.6,0.1c1.6,0,3.2,0.2,4.7,0.3
	c12.6,0.9,25.2,3.6,37.4,7.8c6,2.2,11.9,4.7,17.6,7.7c5.7,2.9,11.1,6.3,16.3,9.9c5.2,3.6,10,7.6,14.6,11.7
	c4.5,4.2,8.8,8.5,12.7,13.2c7.9,9.1,14.1,19,19,28.8c4.9,9.8,8.4,19.7,10.7,28.9c2.3,9.3,3.4,18,3.8,25.7c0.4,7.7,0.3,14.5-0.2,20
	c-0.1,1.5-0.3,2.1-0.5,3.4l-0.8-0.2c0.4-2.5,0.4-2.9,0.5-5.4c0.3-5.5,0.1-10.1-0.7-17.7c-0.7-7.6-2.1-16.2-4.6-25.2
	c-4.9-18.1-14.7-38.3-30.1-55.9c-3.8-4.5-8-8.6-12.4-12.7c-4.5-3.9-9.2-7.8-14.3-11.3c-5.1-3.5-10.3-6.7-15.9-9.5
	c-5.5-2.9-11.3-5.2-17.1-7.4c-11.7-4.2-24-6.9-36.2-7.8c-1.5-0.1-3-0.3-4.6-0.3c-1.5,0-3.1-0.1-4.6-0.1c-3-0.2-6,0.1-9,0.2
	c-3,0-6,0.4-8.9,0.7c-1.5,0.2-3,0.2-4.4,0.5c-1.5,0.2-2.9,0.5-4.3,0.7c-11.5,2-22.4,5.3-32.3,9.4c-9.9,4.2-18.7,9.4-26.4,14.8
	c-1.9,1.4-3.7,2.8-5.6,4.1c-1.7,1.4-3.4,2.8-5.1,4.2c-1.7,1.3-3.2,2.8-4.7,4.2c-1.5,1.4-2.9,2.7-4.3,4.1c-2.6,2.8-5.1,5.3-7.2,7.9
	c-2.1,2.6-4.1,4.9-5.7,7.1c-1.6,2.2-3,4.2-4.3,6c-1.2,1.8-2.1,3.4-2.9,4.6C61.6,122.3,60.8,123.6,60.8,123.6z"/>
<path fill="#67A19D" d="M305.6,271.3c0.5-2.1,0.6-4.4,0.2-6.7c-0.2-1.4-0.8-3-1.9-4.2c-1-1.2-2.5-2.2-4.1-2.5
	c-1.6-0.4-3.4-0.2-4.9,0.6c-0.8,0.4-1.4,0.9-2,1.5c-0.6,0.6-1.1,1.3-1.5,2.1c-1.6,3.1-0.8,7,1.4,9.5c1.1,1.3,2.6,2.2,4.3,2.6
	l0.6,0.1l0.6,0.1l1.1,0.1c0.8,0,1.6,0.1,2.3,0c0.6,0,1.2-0.1,1.8-0.2c-0.6,1.7-7.9,20.1-37.3,36.9c-8.1,4.7-17.3,9-27.4,12.8
	c-7.1,2.6-14.7,4.9-22.6,6.8c1.1,1,2.2,2,3.2,3c7.2-1.9,14-4.2,20.5-6.8c10.2-4,19.5-8.6,27.5-13.6c33.2-20.7,37.4-39.2,37.4-39.2
	c12-2.6,20.6-13.6,21.2-14.3C325.3,260.3,315.9,269.1,305.6,271.3z M304.3,271.5c-0.9,0.2-1.8,0.3-2.7,0.3c-0.7,0.1-1.3,0-1.9,0
	l-1.1-0.1l-0.5,0l-0.4-0.1c-1.2-0.2-2.3-0.8-3.1-1.7c-1.8-1.8-2.4-4.8-1.3-7.1c0.3-0.6,0.6-1.1,1.1-1.6c0.5-0.5,1-0.9,1.5-1.2
	c1.1-0.6,2.4-0.8,3.7-0.6c1.2,0.2,2.4,0.9,3.3,1.9c0.9,1,1.4,2.1,1.7,3.5C304.9,267.1,304.8,269.4,304.3,271.5z"/>
<path fill="#67A19D" d="M79.4,276c-7.3-9.2-13.6-18.6-19.2-27.8c-2.6-4.7-5.4-9.1-7.6-13.7c-0.3-0.5-0.5-1-0.8-1.5
	c3.1-0.6,5.8-1.5,8.2-2.6c4.2-1.9,7.7-3.8,11.6-7.1l-0.5-0.7c-3.8,3.4-7.5,5.3-11.2,6.8c-2.4,1-5.5,2-8.6,2.5
	c-0.7-1.4-1.4-2.7-2.1-4c-1.1-2.2-2.4-4.4-4-6.3c-1.6-1.9-3.6-3.8-6.5-4.1c-1.4-0.2-2.9,0.4-3.9,1.3c-1,0.9-1.6,2.2-1.8,3.4
	c-0.4,2.5,0.5,4.9,1.9,6.7c0.7,0.8,1.5,1.6,2.5,2.2c0.5,0.3,0.9,0.5,1.3,0.7c0.5,0.2,1,0.4,1.5,0.6c3,1.1,6,1.4,8.8,1.1
	c0.4,0.8,0.8,1.6,1.2,2.3c2.1,4.6,4.8,9.2,7.4,14c5.5,9.4,11.5,19.2,19,28.6c4.2,5.3,8.7,10.5,13.5,15.5c0.6-1.1,1.5-2.1,2.6-2.9
	C87.9,286.1,83.5,281.1,79.4,276z M40.7,230.8c-0.4-0.2-0.9-0.4-1.2-0.5c-0.4-0.2-0.9-0.5-1.2-0.7c-0.7-0.5-1.4-1.2-2-1.9
	c-1.1-1.4-1.7-3.3-1.3-5.1c0.4-1.8,1.8-3.2,3.5-2.9c1.7,0.2,3.5,1.7,4.8,3.4c1.4,1.8,2.5,3.8,3.5,6c0.5,1,1,2.1,1.5,3.2
	C45.9,232.2,43.3,231.9,40.7,230.8z"/>
<path fill="#67A19D" stroke="#67A19D" stroke-width="4.3298" stroke-miterlimit="10" d="M77,114.5c0.3,3.2-2,6.1-5.2,6.4
	c-0.1,0-0.3,0-0.4,0l0,0l-11.7,1.2l-1.2-11.7l0,0c0,0,0-0.1,0-0.1c-0.3-3.2,2-6.1,5.2-6.4c3.2-0.3,6.1,2,6.4,5.2c0,0,0,0.1,0,0.1
	c0,0,0,0,0,0c0,0,0,0,0,0l0,0c0.1,0,0.3,0,0.4-0.1C73.8,108.9,76.7,111.3,77,114.5z"/>
<g>
	<g>
		<path fill="#EA6D24" d="M89.6,319.3c3.2,14,13.8,27.4,31.4,29c28.6,2.6,48.8-8.7,60.9-9.6c12.1-0.9,37,8.1,37,8.1
			s-4.6-33.5-35.2-35.6c-36.1-2.5-38.3,6.9-57.1,2c-25.2-6.5-7.3-23.1-7.3-23.1c2.5,8.9,8.3,15.9,13.9,16.2c21.9,1.1,28.9,0,28.9,0
			s0.5-3.9-2.5-4.1c-1.8-0.1-16.6-1.8-16.6-1.8s13.7-30.2-11.4-32.4c0,0,25.9-2.6,13.5,31.7l15.1-12.1l4,17.9l18.2,0.2
			c0,0,1.4-3-2.3-4c-3.9-1-5.1-3.3-5.1-3.3l-2.6-28c0,0,4-8.1,4.5-17.9c0.5-9.8-4.5-24.7-4.5-24.7c-9.1,3.4-17.7-0.5-17.7-0.5
			s-0.9,8.1-9.8,14.4c-20.3,14.4-29.2,22.6-26.6,43.6c0,0-7.5-1.3-19.6,6.7C91.3,297.2,87.2,308.8,89.6,319.3z M166.3,283
			c0.8,0.2,4.8,18.3,4.8,18.3s-3,0.6-3.6,0C166.9,300.7,165.5,282.8,166.3,283z"/>
		<path fill="#FFFFFF" d="M215.1,342.3c-4-9.9-13-25.9-27-26.4c1.2,2.4,3,4.1,4,5.9c-2.7-0.1-5.1-0.6-7.8-0.6c1,1.5,2.8,4.8,4,6.2
			c-3.4,0.1-4.3-0.4-7-0.3c1.4,2,2.8,3.4,4.8,4.8c-2.4,0.2-4.3,1-7.1,2.9c6.8-0.2,12.8,0.2,19.9,1.9
			C203.5,337.8,211.3,339.9,215.1,342.3z"/>
		<path fill="#FFFFFF" d="M169.8,229.5c0,0-4.3,2.5-6.5,2.8c-2.2,0.3-6.3-2.8-6.3-2.8s-9.1,21.1-4.1,30.4c5,9.3,10.4,8.7,16.9,8.1
			c1.3-0.1,7.3-8.5,4.8-21.9C172,232.8,169.8,229.5,169.8,229.5z"/>
	</g>
	<g>
		<path fill="#EA6D24" d="M139.1,223.1c2.9,1.6,6.5,2.4,10.1,3.7c0.2,0.3,0.4,0.5,0.6,0.8c1.1,1.4,2.5,2.5,4,3.4
			c2.3,1.4,5,2.1,7.8,2.3l1.7,0l18.5,0.1l3.6-18.2l0.3-1.7c0.4-2.8,0.2-5.6-0.7-8.1c-0.6-1.6-1.4-3.2-2.5-4.5
			c-0.3-0.4-0.7-0.8-1.1-1.2c-0.5-3.6-0.6-7-1.5-10c-1.2-3.9-1.6-5-3.9-8.9l-0.3-0.1c-4,3.8-6.7,9-7.3,14.5
			c-4.5,0.3-9.2,2.1-13.3,5.4c-4.1,3.4-6.9,7.7-8,12.2c-5.6-0.5-11.4,1-15.9,4.2l0.1,0.3C134.5,220.6,135.5,221.2,139.1,223.1z
			 M168.3,195.9l0-0.2c0,0,0,0,0,0C168.3,195.8,168.3,195.8,168.3,195.9z M147.2,212.9C147.2,212.9,147.2,212.9,147.2,212.9l0.2,0
			C147.4,212.9,147.3,212.9,147.2,212.9z"/>
		<path fill="#FFFFFF" d="M136.4,218.5c3.1-2.2,7-3.2,10.7-2.8l-0.1,0c0.6,1.7,1,3.4,1.3,5.1c0.1,0.3,0.2,4.2,0.2,4.2
			c-2.5-0.9-4.9-1.5-6.9-2.5c-2.3-1.3-3-1.7-5.2-3.7"/>
		<path fill="#FFFFFF" d="M175.9,186.2c-2.8,2.6-4.5,6.2-4.9,10l0-0.1c1.5,0.9,3.1,1.7,4.7,2.3c0.3,0.1,4.1,1.1,4.1,1
			c-0.4-2.6-0.5-5.1-1.1-7.3c-0.8-2.6-1-3.3-2.6-5.8"/>
		<path fill="#FFFFFF" stroke="#422918" stroke-width="5.059430e-02" stroke-miterlimit="10" d="M162.1,231.6
			c1.7,0.3,3.5,0.3,5.1,0.3c3.2,0.1,6.3-0.3,9.5-0.1c1.2,0.1,3.8,0.1,4.8,0.9c-3.3-2.9-6.9-5.9-10.8-8.2c-3.5-2.2-10.1-6.4-13.9-3
			c-2.3,2-1.8,6,0.4,8C158.4,230.8,160.2,231.4,162.1,231.6z"/>
		<path fill="#FFFFFF" stroke="#422918" stroke-width="5.059430e-02" stroke-miterlimit="10" d="M184,213.7c-0.1,1.8-0.4,3.5-0.7,5
			c-0.6,3.1-1.5,6.1-1.9,9.3c-0.2,1.2-0.7,3.8-0.1,4.9c-2.2-3.8-4.4-7.9-5.9-12.2c-1.4-3.9-4.2-11.2-0.2-14.2c2.4-1.8,6.2-0.6,7.8,2
			C183.9,209.9,184.1,211.8,184,213.7z"/>
		<circle fill="#1F2E55" stroke="#4B1B0F" stroke-width="3.816286e-02" stroke-miterlimit="10" cx="178.6" cy="213.7" r="2.7"/>
		<circle fill="#1F2E55" stroke="#4B1B0F" stroke-width="3.816286e-02" stroke-miterlimit="10" cx="163" cy="226.4" r="2.7"/>
		<path fill="#1F2E55" stroke="#4B1B0F" stroke-width="3.852378e-02" stroke-miterlimit="10" d="M181.5,234.4l1.2-1
			c0.6-0.5,0.6-1.1,0.6-1.5l-0.5-2.5c-0.2-0.3-1-0.5-1.6,0c0,0-0.9,0.4-1.8,1.1s-1.5,1.5-1.5,1.5c-0.6,0.5-0.5,1.2-0.3,1.5l2.2,1
			C180.5,234.8,180.9,234.9,181.5,234.4z"/>
	</g>
</g>
</svg>
